<?xml version="1.0" encoding="UTF-8"?>
<svg width="128" height="128" viewBox="0 0 128 128" xmlns="http://www.w3.org/2000/svg">
  <!-- Background -->
  <circle cx="64" cy="64" r="60" fill="#2d3748"/>

  <!-- Brain outline representing Theory of Mind -->
  <path d="M40 75 Q30 65 35 50 Q40 35 55 35 Q65 30 75 35 Q90 35 95 50 Q100 65 90 75 Q85 85 75 90 Q65 95 55 90 Q45 85 40 75"
        fill="none" stroke="#48bb78" stroke-width="3"/>

  <!-- Neural connections -->
  <circle cx="50" cy="55" r="5" fill="#68d391"/>
  <circle cx="75" cy="50" r="5" fill="#68d391"/>
  <circle cx="65" cy="70" r="5" fill="#68d391"/>
  <circle cx="80" cy="70" r="5" fill="#68d391"/>
  <circle cx="55" cy="80" r="5" fill="#68d391"/>

  <!-- Connections -->
  <line x1="50" y1="55" x2="75" y2="50" stroke="#9ae6b4" stroke-width="2"/>
  <line x1="50" y1="55" x2="65" y2="70" stroke="#9ae6b4" stroke-width="2"/>
  <line x1="75" y1="50" x2="80" y2="70" stroke="#9ae6b4" stroke-width="2"/>
  <line x1="75" y1="50" x2="65" y2="70" stroke="#9ae6b4" stroke-width="2"/>
  <line x1="65" y1="70" x2="80" y2="70" stroke="#9ae6b4" stroke-width="2"/>
  <line x1="65" y1="70" x2="55" y2="80" stroke="#9ae6b4" stroke-width="2"/>

  <!-- Recursive symbol (nested circles) -->
  <circle cx="65" cy="70" r="12" fill="none" stroke="#ed8936" stroke-width="2"/>
  <circle cx="65" cy="70" r="8" fill="none" stroke="#ed8936" stroke-width="1.5"/>

  <!-- ToM text -->
  <text x="64" y="110" text-anchor="middle" font-family="Arial" font-size="14" font-weight="bold" fill="#e2e8f0">ToM-NAS</text>
</svg>
